<svg xmlns="http://www.w3.org/2000/svg" width="53" height="53" viewBox="0 0 53 53">
  <g id="Group_116" data-name="Group 116" transform="translate(-75 -72)">
    <circle id="Ellipse_27" data-name="Ellipse 27" cx="26.5" cy="26.5" r="26.5" transform="translate(75 72)" fill="#5f6368"/>
    <path id="building_1_" data-name="building (1)" d="M67.284,24.547H65.551V3.809a.863.863,0,0,0-.879-.846h-6.59V.846A.863.863,0,0,0,57.2,0h-6.1a.863.863,0,0,0-.879.846V2.963h-.714a.863.863,0,0,0-.879.846V24.547H46.9a.882.882,0,0,0-.9.806.861.861,0,0,0,.878.887H53.14a.432.432,0,0,0,.439-.423V20.95h-.36a.882.882,0,0,1-.9-.806.861.861,0,0,1,.878-.887h7.774a.882.882,0,0,1,.9.806.861.861,0,0,1-.878.887h-.384v4.867a.432.432,0,0,0,.439.423h6.261a.861.861,0,0,0,.878-.887A.882.882,0,0,0,67.284,24.547ZM54.952,17.511h-.989a.847.847,0,1,1,0-1.693h.989a.847.847,0,1,1,0,1.693Zm0-3.174h-.989a.847.847,0,1,1,0-1.693h.989a.847.847,0,1,1,0,1.693Zm0-3.174h-.989a.847.847,0,1,1,0-1.693h.989a.847.847,0,1,1,0,1.693Zm0-3.174h-.989a.847.847,0,1,1,0-1.693h.989a.847.847,0,1,1,0,1.693Zm5.217,9.523h-.989a.847.847,0,1,1,0-1.693h.989a.847.847,0,1,1,0,1.693Zm0-3.174h-.989a.847.847,0,1,1,0-1.693h.989a.847.847,0,1,1,0,1.693Zm0-3.174h-.989a.847.847,0,1,1,0-1.693h.989a.847.847,0,1,1,0,1.693Zm0-3.174h-.989a.847.847,0,1,1,0-1.693h.989a.847.847,0,1,1,0,1.693ZM55.336,25.817V21.373a.432.432,0,0,1,.439-.423h2.636a.432.432,0,0,1,.439.423v4.444a.432.432,0,0,1-.439.423H55.776A.432.432,0,0,1,55.336,25.817Z" transform="translate(44.497 85)" fill="#fff"/>
  </g>
</svg>
