<svg xmlns="http://www.w3.org/2000/svg" width="53" height="53" viewBox="0 0 53 53">
  <g id="Group_122" data-name="Group 122" transform="translate(-75 -72)">
    <circle id="Ellipse_27" data-name="Ellipse 27" cx="26.5" cy="26.5" r="26.5" transform="translate(75 72)" fill="#5f6368"/>
    <g id="Group_123" data-name="Group 123" transform="translate(84.52 86.503)">
      <path id="building_1_" data-name="building (1)" d="M64.593,22.261H63.08V3.454a.768.768,0,0,0-.768-.768H56.555V.768A.768.768,0,0,0,55.787,0H50.462a.768.768,0,0,0-.768.768V2.687h-.624a.768.768,0,0,0-.768.768V22.261H46.789a.782.782,0,0,0-.788.731.767.767,0,0,0,.767.8h5.469a.384.384,0,0,0,.384-.384V19h-.314a.782.782,0,0,1-.788-.73.768.768,0,0,1,.767-.8h6.791a.782.782,0,0,1,.788.73.768.768,0,0,1-.767.8h-.336v4.414a.384.384,0,0,0,.384.384h5.469a.767.767,0,0,0,.767-.8A.782.782,0,0,0,64.593,22.261ZM53.82,15.88h-.864a.768.768,0,1,1,0-1.535h.864a.768.768,0,0,1,0,1.535Zm0-2.879h-.864a.768.768,0,1,1,0-1.535h.864a.768.768,0,0,1,0,1.535Zm0-2.879h-.864a.768.768,0,1,1,0-1.535h.864a.768.768,0,0,1,0,1.535Zm0-2.879h-.864a.768.768,0,1,1,0-1.535h.864a.768.768,0,0,1,0,1.535Zm4.558,8.636h-.864a.768.768,0,0,1,0-1.535h.864a.768.768,0,0,1,0,1.535Zm0-2.879h-.864a.768.768,0,0,1,0-1.535h.864a.768.768,0,0,1,0,1.535Zm0-2.879h-.864a.768.768,0,0,1,0-1.535h.864a.768.768,0,0,1,0,1.535Zm0-2.879h-.864a.768.768,0,0,1,0-1.535h.864a.768.768,0,0,1,0,1.535ZM54.156,23.412v-4.03A.384.384,0,0,1,54.54,19h2.3a.384.384,0,0,1,.384.384v4.03a.384.384,0,0,1-.384.384h-2.3A.384.384,0,0,1,54.156,23.412Z" transform="translate(-32.182)" fill="#fff"/>
      <g id="user_3_" data-name="user (3)" transform="translate(0 4.052)">
        <g id="Group_109" data-name="Group 109" transform="translate(2.854)">
          <g id="Group_108" data-name="Group 108">
            <path id="Path_96" data-name="Path 96" d="M114.732,0a3.941,3.941,0,1,0,3.941,3.941A3.952,3.952,0,0,0,114.732,0Z" transform="translate(-110.791 0)" fill="#fff"/>
          </g>
        </g>
        <g id="Group_111" data-name="Group 111" transform="translate(0 8.165)">
          <g id="Group_110" data-name="Group 110">
            <path id="Path_97" data-name="Path 97" d="M37.724,250.708a3.674,3.674,0,0,0-.4-.723,4.9,4.9,0,0,0-3.391-2.134.725.725,0,0,0-.5.121,4.2,4.2,0,0,1-4.957,0,.646.646,0,0,0-.5-.121,4.864,4.864,0,0,0-3.391,2.134,4.235,4.235,0,0,0-.4.723.366.366,0,0,0,.017.327,6.874,6.874,0,0,0,.465.688,6.54,6.54,0,0,0,.792.895,10.307,10.307,0,0,0,.792.688,7.849,7.849,0,0,0,9.363,0,7.56,7.56,0,0,0,.792-.688,7.945,7.945,0,0,0,.792-.895,6.04,6.04,0,0,0,.465-.688A.294.294,0,0,0,37.724,250.708Z" transform="translate(-24.165 -247.841)" fill="#fff"/>
          </g>
        </g>
      </g>
    </g>
  </g>
</svg>
