<svg xmlns="http://www.w3.org/2000/svg" width="53" height="53" viewBox="0 0 53 53">
  <g id="Group_117" data-name="Group 117" transform="translate(-75 -72)">
    <circle id="Ellipse_27" data-name="Ellipse 27" cx="26.5" cy="26.5" r="26.5" transform="translate(75 72)" fill="#5f6368"/>
    <g id="user_2_" data-name="user (2)" transform="translate(89.486 84.506)">
      <g id="Group_119" data-name="Group 119" transform="translate(5.208)">
        <g id="Group_118" data-name="Group 118">
          <path id="Path_98" data-name="Path 98" d="M117.984,0a7.193,7.193,0,1,0,7.193,7.193A7.212,7.212,0,0,0,117.984,0Z" transform="translate(-110.791)" fill="#fff"/>
        </g>
      </g>
      <g id="Group_121" data-name="Group 121" transform="translate(0 14.901)">
        <g id="Group_120" data-name="Group 120">
          <path id="Path_99" data-name="Path 99" d="M48.912,253.074a6.707,6.707,0,0,0-.722-1.319A8.941,8.941,0,0,0,42,247.86a1.324,1.324,0,0,0-.911.22,7.668,7.668,0,0,1-9.047,0,1.179,1.179,0,0,0-.911-.22,8.877,8.877,0,0,0-6.188,3.9,7.733,7.733,0,0,0-.722,1.319.668.668,0,0,0,.031.6,12.531,12.531,0,0,0,.848,1.257,11.938,11.938,0,0,0,1.445,1.633,18.824,18.824,0,0,0,1.445,1.257,14.325,14.325,0,0,0,17.088,0,13.815,13.815,0,0,0,1.445-1.257,14.505,14.505,0,0,0,1.445-1.633,11.013,11.013,0,0,0,.848-1.257A.536.536,0,0,0,48.912,253.074Z" transform="translate(-24.165 -247.841)" fill="#fff"/>
        </g>
      </g>
    </g>
  </g>
</svg>
